<?xml version="1.0" encoding="utf-8"?>
<!-- Generator: Adobe Illustrator 27.5.0, SVG Export Plug-In . SVG Version: 6.00 Build 0)  -->
<svg version="1.1" xmlns="http://www.w3.org/2000/svg" xmlns:xlink="http://www.w3.org/1999/xlink" x="0px" y="0px"
	 viewBox="0 0 750 500" style="enable-background:new 0 0 750 500;" xml:space="preserve">
<g id="BACKGROUND">
	<rect style="fill:#EBEBEB;" width="750" height="500"/>
</g>
<g id="OBJECTS">
	<rect x="44.491" y="55.493" style="fill:#EBEBEB;" width="661.017" height="389.014"/>
	<path style="opacity:0.5;fill:#0d6efd;" d="M595.438,199.389h-47.755c0,0-1.343-1.522,3.663-2.576
		c5.006-1.054,7.02,3.057,11.651-6.942c1.998-4.315,6.863-6.192,11.32-5.285s6.473,9.036,9.549,7.88
		c3.077-1.156,1.38-7.391,8.332-7.894s5.916,7.294,8.256,9.519c2.34,2.225,3.174-3.059,5.677-1.947
		c2.503,1.112,1.86,4.35,4.267,4.35s7.249,0.907,8.867,2.059C620.885,199.706,595.438,199.389,595.438,199.389z"/>
	<path style="opacity:0.5;fill:#0d6efd;" d="M390.792,115.586h-47.755c0,0-1.343-1.522,3.663-2.576
		c5.006-1.054,7.02,3.057,11.651-6.942c1.998-4.315,6.863-6.192,11.32-5.285c4.457,0.906,6.473,9.036,9.55,7.88
		c3.077-1.156,1.38-7.391,8.332-7.894c6.953-0.503,5.916,7.294,8.256,9.519s3.174-3.059,5.677-1.947
		c2.503,1.112,1.86,4.35,4.267,4.35s7.249,0.907,8.867,2.059C416.238,115.903,390.792,115.586,390.792,115.586z"/>
	<path style="opacity:0.5;fill:#0d6efd;" d="M153.221,235.385h-47.755c0,0-1.343-1.522,3.663-2.576s7.02,3.057,11.651-6.942
		c1.998-4.315,6.863-6.192,11.32-5.285c4.457,0.906,6.473,9.036,9.55,7.88c3.077-1.156,1.38-7.391,8.332-7.894
		s5.916,7.294,8.256,9.519s3.174-3.059,5.677-1.947c2.503,1.112,1.86,4.35,4.267,4.35s7.249,0.907,8.867,2.059
		C178.668,235.701,153.221,235.385,153.221,235.385z"/>
	<path style="fill:#D5ECE0;" d="M286.536,432.01h-55.671c-1.095,0-1.99-0.896-1.99-1.99l0,0c0-1.095,0.896-1.99,1.99-1.99h55.671
		c1.095,0,1.99,0.896,1.99,1.99l0,0C288.526,431.114,287.631,432.01,286.536,432.01z"/>
	<path style="fill:#D5ECE0;" d="M220.736,432.01H131.45c-1.095,0-1.99-0.896-1.99-1.99l0,0c0-1.095,0.896-1.99,1.99-1.99h89.286
		c1.095,0,1.99,0.896,1.99,1.99l0,0C222.726,431.114,221.831,432.01,220.736,432.01z"/>
	<path style="fill:#D5ECE0;" d="M354.312,432.01h-55.671c-1.095,0-1.99-0.896-1.99-1.99l0,0c0-1.095,0.896-1.99,1.99-1.99h55.671
		c1.095,0,1.99,0.896,1.99,1.99l0,0C356.303,431.114,355.407,432.01,354.312,432.01z"/>
	<path style="fill:#D5ECE0;" d="M529.225,421.04H185.601c-1.095,0-1.99-0.896-1.99-1.99l0,0c0-1.095,0.896-1.99,1.99-1.99h343.625
		c1.095,0,1.99,0.896,1.99,1.99l0,0C531.215,420.144,530.32,421.04,529.225,421.04z"/>
	<path style="fill:#D5ECE0;" d="M564.974,432.01H404.349c-1.095,0-1.99-0.896-1.99-1.99l0,0c0-1.095,0.896-1.99,1.99-1.99h160.625
		c1.095,0,1.99,0.896,1.99,1.99l0,0C566.965,431.114,566.069,432.01,564.974,432.01z"/>
	<circle style="opacity:0.5;fill:#FFCC07;" cx="495.075" cy="241.856" r="101.218"/>
	<path style="fill:#D5ECE0;" d="M122.764,416.688c0,0,50.398-277.21,214.6-260.538c106.29,10.792,118.181,166.601,156.687,155.539
		c79.092-22.72,131.877-44.624,170.683,104.999H122.764z"/>
	<circle style="fill:#D5ECE0;" cx="215.897" cy="306.959" r="101.218"/>
	<g>
		
			<rect x="161.821" y="102.485" transform="matrix(0.7351 -0.678 0.678 0.7351 -19.8677 156.2451)" style="fill:#423A64;" width="56.364" height="2.122"/>
		
			<rect x="258.073" y="51.494" transform="matrix(0.3671 -0.9302 0.9302 0.3671 67.6888 306.5753)" style="fill:#423A64;" width="2.122" height="104.103"/>
		<g>
			<g>
				<rect x="200.693" y="273.853" style="fill:#423A64;" width="20.048" height="2.122"/>
				
					<rect x="195.932" y="284.721" transform="matrix(0.6781 -0.735 0.735 0.6781 -142.2115 246.8651)" style="fill:#423A64;" width="29.57" height="2.122"/>
			</g>
			
				<rect x="209.656" y="270.997" transform="matrix(0.7351 -0.678 0.678 0.7351 -137.9323 218.5757)" style="fill:#423A64;" width="2.122" height="29.57"/>
		</g>
		<g>
			<g>
				<rect x="200.693" y="252.118" style="fill:#423A64;" width="20.048" height="2.122"/>
				
					<rect x="195.932" y="262.985" transform="matrix(0.6781 -0.735 0.735 0.6781 -126.2362 239.8682)" style="fill:#423A64;" width="29.57" height="2.122"/>
			</g>
			
				<rect x="209.656" y="249.261" transform="matrix(0.7351 -0.678 0.678 0.7351 -123.1956 212.8173)" style="fill:#423A64;" width="2.122" height="29.57"/>
		</g>
		<g>
			<g>
				<rect x="200.693" y="230.382" style="fill:#423A64;" width="20.048" height="2.122"/>
				
					<rect x="195.932" y="241.249" transform="matrix(0.678 -0.7351 0.7351 0.678 -110.2627 232.929)" style="fill:#423A64;" width="29.57" height="2.122"/>
			</g>
			
				<rect x="209.656" y="227.525" transform="matrix(0.7351 -0.678 0.678 0.7351 -108.459 207.0588)" style="fill:#423A64;" width="2.122" height="29.57"/>
		</g>
		<g>
			<g>
				<rect x="200.693" y="208.646" style="fill:#423A64;" width="20.048" height="2.122"/>
				
					<rect x="195.932" y="219.514" transform="matrix(0.678 -0.7351 0.7351 0.678 -94.2847 225.9293)" style="fill:#423A64;" width="29.57" height="2.122"/>
			</g>
			
				<rect x="209.656" y="205.789" transform="matrix(0.7351 -0.678 0.678 0.7351 -93.7222 201.3003)" style="fill:#423A64;" width="2.122" height="29.57"/>
		</g>
		<g>
			<g>
				<rect x="200.693" y="185.113" style="fill:#423A64;" width="20.048" height="2.122"/>
				
					<rect x="195.932" y="195.981" transform="matrix(0.678 -0.7351 0.7351 0.678 -76.9861 218.351)" style="fill:#423A64;" width="29.57" height="2.122"/>
			</g>
			
				<rect x="209.656" y="182.257" transform="matrix(0.7351 -0.678 0.678 0.7351 -77.7674 195.0676)" style="fill:#423A64;" width="2.122" height="29.57"/>
		</g>
		<g>
			<g>
				<rect x="200.693" y="163.377" style="fill:#423A64;" width="20.048" height="2.122"/>
				
					<rect x="195.932" y="174.245" transform="matrix(0.678 -0.7351 0.7351 0.678 -61.0082 211.3513)" style="fill:#423A64;" width="29.57" height="2.122"/>
			</g>
			
				<rect x="209.656" y="160.521" transform="matrix(0.7351 -0.678 0.678 0.7351 -63.0307 189.3074)" style="fill:#423A64;" width="2.122" height="29.57"/>
		</g>
		<g>
			<g>
				<rect x="200.693" y="99.857" style="fill:#423A64;" width="20.048" height="2.122"/>
				
					<rect x="195.932" y="110.725" transform="matrix(0.678 -0.7351 0.7351 0.678 -14.3152 190.8957)" style="fill:#423A64;" width="29.57" height="2.122"/>
			</g>
			
				<rect x="209.656" y="97.001" transform="matrix(0.7351 -0.678 0.678 0.7351 -19.9649 172.4793)" style="fill:#423A64;" width="2.122" height="29.57"/>
		</g>
		<g>
			<g>
				<rect x="200.693" y="141.641" style="fill:#195C6C;" width="20.048" height="2.122"/>
				
					<rect x="195.932" y="152.509" transform="matrix(0.678 -0.7351 0.7351 0.678 -45.0302 204.3516)" style="fill:#423A64;" width="29.57" height="2.122"/>
			</g>
			
				<rect x="209.656" y="138.785" transform="matrix(0.7351 -0.678 0.678 0.7351 -48.2939 183.549)" style="fill:#423A64;" width="2.122" height="29.57"/>
		</g>
		<g>
			<g>
				<rect x="241.416" y="122.654" style="fill:#423A64;" width="2.122" height="20.048"/>
				
					<rect x="230.548" y="117.893" transform="matrix(0.678 -0.7351 0.7351 0.678 -22.9473 212.9731)" style="fill:#423A64;" width="2.122" height="29.57"/>
			</g>
			
				<rect x="216.824" y="131.617" transform="matrix(0.7351 -0.678 0.678 0.7351 -28.5965 192.1702)" style="fill:#423A64;" width="29.57" height="2.122"/>
		</g>
		<g>
			<g>
				<rect x="174.946" y="122.654" style="fill:#423A64;" width="2.122" height="20.048"/>
				
					<rect x="185.814" y="117.893" transform="matrix(0.678 -0.7351 0.7351 0.678 -37.3519 180.0915)" style="fill:#423A64;" width="2.122" height="29.57"/>
			</g>
			
				<rect x="172.09" y="131.617" transform="matrix(0.7351 -0.678 0.678 0.7351 -40.4469 161.8419)" style="fill:#423A64;" width="29.57" height="2.122"/>
		</g>
		<g>
			<g>
				<rect x="263.085" y="122.654" style="fill:#423A64;" width="2.122" height="20.048"/>
				
					<rect x="252.217" y="117.893" transform="matrix(0.678 -0.7351 0.7351 0.678 -15.969 228.9032)" style="fill:#423A64;" width="2.122" height="29.57"/>
			</g>
			
				<rect x="238.493" y="131.617" transform="matrix(0.7351 -0.678 0.678 0.7351 -22.8561 206.8613)" style="fill:#423A64;" width="29.57" height="2.122"/>
		</g>
		<g>
			<g>
				<rect x="284.821" y="122.654" style="fill:#423A64;" width="2.122" height="20.048"/>
				
					<rect x="273.953" y="117.893" transform="matrix(0.678 -0.7351 0.7351 0.678 -8.9697 244.8808)" style="fill:#423A64;" width="2.122" height="29.57"/>
			</g>
			
				<rect x="260.229" y="131.617" transform="matrix(0.7351 -0.678 0.678 0.7351 -17.0981 221.5975)" style="fill:#423A64;" width="29.57" height="2.122"/>
		</g>
		<g>
			<g>
				<rect x="306.491" y="122.654" style="fill:#423A64;" width="2.122" height="20.048"/>
				
					<rect x="295.623" y="117.893" transform="matrix(0.678 -0.7351 0.7351 0.678 -1.9933 260.8058)" style="fill:#423A64;" width="2.122" height="29.57"/>
			</g>
			
				<rect x="281.899" y="131.617" transform="matrix(0.7351 -0.678 0.678 0.7351 -11.3578 236.2886)" style="fill:#423A64;" width="29.57" height="2.122"/>
		</g>
		<g>
			<g>
				<rect x="328.227" y="122.654" style="fill:#423A64;" width="2.122" height="20.048"/>
				
					<rect x="317.358" y="117.893" transform="matrix(0.678 -0.7351 0.7351 0.678 5.0075 276.7869)" style="fill:#423A64;" width="2.122" height="29.57"/>
			</g>
			
				<rect x="303.635" y="131.617" transform="matrix(0.735 -0.6781 0.6781 0.735 -5.5786 251.0829)" style="fill:#423A64;" width="29.57" height="2.122"/>
		</g>
		<g>
			<g>
				<rect x="349.896" y="122.654" style="fill:#423A64;" width="2.122" height="20.048"/>
				
					<rect x="339.028" y="117.893" transform="matrix(0.678 -0.7351 0.7351 0.678 11.9835 292.7117)" style="fill:#423A64;" width="2.122" height="29.569"/>
			</g>
			
				<rect x="325.304" y="131.617" transform="matrix(0.735 -0.6781 0.6781 0.735 0.1644 265.7769)" style="fill:#423A64;" width="29.569" height="2.122"/>
		</g>
		<path style="fill:#038DA6;" d="M220.741,297.711h-20.048c-0.586,0-1.061-0.475-1.061-1.061V99.952c0-0.204,0.059-0.404,0.17-0.576
			l10.024-15.514c0.195-0.303,0.531-0.485,0.891-0.485s0.696,0.183,0.891,0.485l10.024,15.514c0.111,0.171,0.17,0.371,0.17,0.576
			V296.65C221.802,297.236,221.327,297.711,220.741,297.711z M201.754,295.589h17.926V100.264l-8.963-13.872l-8.963,13.872V295.589z
			"/>
		<path style="fill:#038DA6;" d="M376.478,143.763H178.639c-0.586,0-1.061-0.475-1.061-1.061v-20.048
			c0-0.586,0.475-1.061,1.061-1.061h172.086c0.236,0,0.465,0.079,0.652,0.224l25.752,20.048c0.357,0.278,0.499,0.753,0.352,1.182
			C377.334,143.475,376.931,143.763,376.478,143.763z M179.7,141.641h193.688l-23.026-17.926H179.7V141.641z"/>
		<rect x="195.696" y="117.657" style="fill:#423A64;" width="30.043" height="30.043"/>
		<g>
			<rect x="169.288" y="122.654" style="fill:#423A64;" width="9.351" height="20.048"/>
			<path style="fill:#423A64;" d="M179.7,143.763h-11.473v-22.17H179.7V143.763z M170.349,141.641h7.23v-17.926h-7.23V141.641z"/>
		</g>
		<rect x="191.651" y="307.322" style="fill:#423A64;" width="38.133" height="23.604"/>
		<polygon style="fill:#423A64;" points="210.702,297.37 199.958,297.37 191.651,307.322 210.702,307.322 		"/>
		<polygon style="fill:#038DA6;" points="210.48,297.37 221.224,297.37 229.531,307.322 210.48,307.322 		"/>
		<rect x="191.651" y="312.81" style="fill:#038DA6;" width="38.133" height="2.47"/>
		<rect x="191.651" y="320.771" style="fill:#038DA6;" width="38.133" height="2.47"/>
	</g>
	<path style="fill:#423A64;" d="M308.019,224.317c0,0-20.777-9.427-43.825,9.081c-20.677,16.604-8.095,44.871-31.026,32.114
		c-19.016-10.579-44.113-1.781-44.005,19.844c0.108,21.624-24.166,3.195-34.492,25.13h153.348V224.317z"/>
	<path style="fill:#00969E;" d="M434.282,133.88c0,0-20.777-9.427-43.825,9.081c-20.677,16.604-8.095,44.871-31.026,32.114
		c-19.016-10.579-44.113-1.781-44.005,19.844s-24.166,3.195-34.492,25.13h153.348V133.88z"/>
	<path style="fill:#4D61F4;" d="M484.041,366.105c0,0,17.648-0.715,20.169-15.842c2.521-15.127,0.592-21.519,10.677-28.075
		c10.085-6.555,14.916-0.221,22.173-17.733c7.257-17.512-16.44-30.546-7.844-39.028c9.961-9.829,15.238-11.049,16.094-30.158
		c1.643-36.673-61.27-32-61.27-32V366.105z"/>
	<g>
		<path style="fill:#00969E;" d="M195.866,240.991c0,0-10.899,2.295-8.52,17.129c2.022,12.611-6.85,6.325-11.321,25.5
			c-5.496,23.572,12.006,22.499,5.027,30.874c-10.895,13.074-23.334,47.541,12.858,51.487c33.546,3.657,39.782-18.582,34.848-32.847
			c-4.933-14.265-17.7-19.654-11.96-28.209c5.057-7.537,9.113-21.413-0.268-31.139c-9.381-9.726-8.842-5.385-10.044-18.005
			C205.283,243.161,202.038,239.357,195.866,240.991z"/>
		<path style="fill:#FFF8F0;" d="M199.434,366.691c-0.205,0-0.372-0.164-0.375-0.369l-1.611-110.535
			c-0.003-0.207,0.163-0.378,0.37-0.381c0.209,0.002,0.377,0.162,0.38,0.369l1.611,110.535c0.003,0.207-0.163,0.378-0.37,0.381
			C199.437,366.691,199.436,366.691,199.434,366.691z"/>
		<path style="fill:#FFF8F0;" d="M198.289,291.946c-0.005,0-0.01,0-0.015-0.001c-0.228-0.011-0.834-0.039-10.034-14.521
			c-0.111-0.175-0.06-0.406,0.115-0.518c0.176-0.111,0.407-0.06,0.518,0.115c3.105,4.889,8.14,12.612,9.367,14.013
			c2.714-3.809,7.504-15.696,7.554-15.819c0.078-0.192,0.297-0.284,0.488-0.208c0.192,0.077,0.286,0.295,0.208,0.487
			c-0.209,0.521-5.147,12.772-7.877,16.295C198.541,291.883,198.407,291.946,198.289,291.946z"/>
		<path style="fill:#FFF8F0;" d="M198.645,317.075c-0.068,0-0.137-0.015-0.192-0.044c-0.521-0.275-5.847-9.576-10.223-17.33
			c-0.102-0.181-0.038-0.409,0.143-0.511c0.179-0.104,0.408-0.039,0.511,0.142c3.402,6.028,8.502,14.93,9.743,16.763
			c1.048-1.986,4.84-12.141,7.163-18.573c0.07-0.195,0.287-0.297,0.48-0.226c0.195,0.07,0.295,0.285,0.225,0.479
			c-4.537,12.567-7.129,19.053-7.704,19.274C198.747,317.066,198.696,317.075,198.645,317.075z"/>
		<path style="fill:#FFF8F0;" d="M199.119,345.256c-0.068,0-0.137-0.015-0.192-0.044c-0.521-0.275-5.846-9.576-10.223-17.33
			c-0.102-0.181-0.038-0.409,0.143-0.511c0.18-0.104,0.409-0.039,0.511,0.142c3.402,6.028,8.502,14.93,9.742,16.763
			c1.049-1.986,4.841-12.141,7.164-18.573c0.071-0.196,0.285-0.298,0.48-0.226c0.195,0.07,0.295,0.285,0.225,0.479
			c-4.537,12.568-7.129,19.053-7.704,19.274C199.221,345.248,199.17,345.256,199.119,345.256z"/>
	</g>
	<g>
		<path style="fill:#4D61F4;" d="M442.1,95.579c0,0-10.899,2.295-8.52,17.129c2.022,12.61-6.85,6.325-11.322,25.5
			c-5.496,23.572,12.006,22.499,5.027,30.874c-10.895,13.074-23.334,47.541,12.858,51.487c33.546,3.657,39.782-18.582,34.848-32.847
			s-17.7-19.654-11.96-28.209c5.057-7.537,9.113-21.413-0.268-31.139c-9.381-9.726-8.842-5.385-10.044-18.005
			C451.517,97.749,448.272,93.945,442.1,95.579z"/>
		<path style="fill:#FFF8F0;" d="M445.667,221.279c-0.205,0-0.372-0.165-0.375-0.37l-1.61-110.535
			c-0.003-0.207,0.162-0.377,0.369-0.38c0.245-0.003,0.378,0.163,0.381,0.37l1.61,110.535c0.003,0.207-0.162,0.377-0.369,0.38
			C445.671,221.279,445.669,221.279,445.667,221.279z"/>
		<path style="fill:#FFF8F0;" d="M444.522,146.534c-0.005,0-0.01,0-0.015,0c-0.229-0.011-0.835-0.039-10.034-14.521
			c-0.111-0.175-0.06-0.407,0.115-0.518c0.173-0.111,0.406-0.061,0.518,0.115c3.105,4.889,8.141,12.613,9.366,14.012
			c2.714-3.808,7.505-15.696,7.555-15.818c0.077-0.193,0.297-0.282,0.487-0.208c0.192,0.078,0.285,0.296,0.208,0.488
			c-0.209,0.52-5.147,12.773-7.876,16.294C444.774,146.47,444.641,146.534,444.522,146.534z"/>
		<path style="fill:#FFF8F0;" d="M444.878,171.663c-0.068,0-0.138-0.015-0.192-0.043c-0.52-0.276-5.846-9.577-10.222-17.332
			c-0.103-0.18-0.038-0.409,0.142-0.511c0.18-0.102,0.409-0.039,0.511,0.143c3.402,6.028,8.503,14.93,9.742,16.763
			c1.049-1.986,4.841-12.141,7.164-18.574c0.069-0.195,0.282-0.298,0.479-0.225c0.195,0.07,0.296,0.285,0.226,0.48
			c-4.537,12.568-7.129,19.053-7.704,19.274C444.98,171.655,444.93,171.663,444.878,171.663z"/>
		<path style="fill:#FFF8F0;" d="M445.353,199.844c-0.068,0-0.138-0.015-0.192-0.043c-0.521-0.276-5.847-9.577-10.223-17.332
			c-0.103-0.18-0.038-0.409,0.142-0.511c0.181-0.102,0.409-0.039,0.511,0.143c3.402,6.028,8.503,14.93,9.743,16.763
			c1.048-1.986,4.84-12.141,7.163-18.574c0.069-0.195,0.283-0.297,0.479-0.225c0.195,0.07,0.296,0.285,0.226,0.48
			c-4.537,12.568-7.129,19.053-7.703,19.274C445.454,199.835,445.403,199.844,445.353,199.844z"/>
	</g>
	<g>
		<path style="fill:#423A64;" d="M159.951,271.038c0,0-10.899,2.295-8.52,17.129c2.022,12.61-6.85,6.325-11.322,25.5
			c-5.496,23.572,12.006,22.499,5.027,30.874c-10.895,13.074-23.334,47.541,12.858,51.487c33.546,3.657,39.782-18.582,34.848-32.847
			c-4.933-14.265-17.7-19.654-11.96-28.209c5.057-7.537,9.113-21.413-0.268-31.139c-9.381-9.726-8.842-5.385-10.044-18.005
			C169.368,273.208,166.122,269.404,159.951,271.038z"/>
		<path style="fill:#FFF8F0;" d="M163.518,396.737c-0.205,0-0.372-0.164-0.375-0.369l-1.611-110.534
			c-0.003-0.207,0.163-0.378,0.37-0.381c0.238,0.008,0.377,0.162,0.38,0.369l1.611,110.534c0.003,0.207-0.163,0.378-0.37,0.381
			C163.521,396.737,163.52,396.737,163.518,396.737z"/>
		<path style="fill:#FFF8F0;" d="M162.373,321.993c-0.005,0-0.01,0-0.015-0.001c-0.228-0.011-0.833-0.038-10.033-14.521
			c-0.111-0.175-0.06-0.406,0.115-0.518c0.175-0.112,0.406-0.06,0.518,0.115c3.105,4.889,8.14,12.612,9.366,14.012
			c2.714-3.809,7.504-15.695,7.554-15.818c0.078-0.192,0.297-0.285,0.488-0.208c0.192,0.077,0.286,0.295,0.208,0.487
			c-0.209,0.521-5.147,12.772-7.877,16.295C162.625,321.93,162.491,321.993,162.373,321.993z"/>
		<path style="fill:#FFF8F0;" d="M162.729,347.122c-0.068,0-0.137-0.015-0.192-0.044c-0.521-0.275-5.846-9.576-10.223-17.33
			c-0.102-0.181-0.038-0.409,0.143-0.511c0.178-0.104,0.409-0.039,0.511,0.142c3.402,6.028,8.502,14.93,9.742,16.763
			c1.049-1.986,4.84-12.141,7.163-18.573c0.07-0.196,0.286-0.297,0.48-0.226c0.195,0.07,0.295,0.285,0.225,0.479
			c-4.537,12.568-7.129,19.053-7.703,19.274C162.831,347.113,162.78,347.122,162.729,347.122z"/>
		<path style="fill:#FFF8F0;" d="M163.203,375.303c-0.068,0-0.137-0.015-0.192-0.044c-0.521-0.275-5.846-9.576-10.223-17.33
			c-0.102-0.181-0.038-0.409,0.143-0.511c0.179-0.104,0.409-0.039,0.511,0.142c3.402,6.028,8.502,14.93,9.742,16.763
			c1.049-1.986,4.841-12.141,7.164-18.573c0.07-0.195,0.287-0.298,0.48-0.226c0.195,0.07,0.295,0.285,0.225,0.479
			c-4.537,12.568-7.129,19.053-7.704,19.274C163.305,375.295,163.254,375.303,163.203,375.303z"/>
	</g>
	<g>
		<path style="fill:#423A64;" d="M598.256,287.989c0,0-10.899,2.295-8.52,17.129c2.022,12.611-6.85,6.325-11.322,25.5
			c-5.496,23.572,12.006,22.499,5.027,30.874c-10.895,13.074-23.334,47.541,12.858,51.487c33.546,3.657,39.781-18.582,34.848-32.847
			c-4.933-14.265-17.701-19.654-11.96-28.209c5.057-7.537,9.113-21.413-0.268-31.139s-8.842-5.385-10.044-18.005
			C607.673,290.159,604.428,286.355,598.256,287.989z"/>
		<path style="fill:#FFF8F0;" d="M601.823,413.688c-0.205,0-0.372-0.164-0.375-0.369l-1.611-110.534
			c-0.003-0.207,0.162-0.378,0.369-0.381c0.243,0.021,0.379,0.162,0.381,0.369l1.611,110.534c0.003,0.207-0.162,0.378-0.369,0.381
			C601.827,413.688,601.825,413.688,601.823,413.688z"/>
		<path style="fill:#FFF8F0;" d="M600.678,338.944c-0.005,0-0.01,0-0.015-0.001c-0.228-0.01-0.833-0.038-10.033-14.521
			c-0.111-0.175-0.06-0.406,0.115-0.518c0.174-0.112,0.406-0.061,0.518,0.115c3.105,4.889,8.14,12.611,9.365,14.012
			c2.716-3.809,7.505-15.695,7.555-15.818c0.077-0.192,0.298-0.285,0.487-0.208c0.192,0.077,0.285,0.295,0.208,0.487
			c-0.209,0.521-5.146,12.772-7.876,16.295C600.93,338.881,600.796,338.944,600.678,338.944z"/>
		<path style="fill:#FFF8F0;" d="M601.034,364.073c-0.068,0-0.138-0.015-0.192-0.044c-0.52-0.275-5.846-9.577-10.222-17.331
			c-0.103-0.181-0.038-0.409,0.142-0.511c0.182-0.104,0.409-0.039,0.511,0.142c3.402,6.028,8.503,14.931,9.742,16.764
			c1.049-1.986,4.841-12.141,7.163-18.573c0.069-0.196,0.283-0.299,0.479-0.226c0.195,0.07,0.296,0.285,0.226,0.479
			c-4.536,12.567-7.128,19.053-7.703,19.274C601.137,364.064,601.086,364.073,601.034,364.073z"/>
		<path style="fill:#FFF8F0;" d="M601.508,392.254c-0.068,0-0.138-0.015-0.192-0.044c-0.52-0.275-5.846-9.577-10.222-17.331
			c-0.103-0.181-0.038-0.409,0.142-0.511c0.181-0.103,0.409-0.039,0.511,0.142c3.402,6.028,8.503,14.931,9.742,16.764
			c1.049-1.986,4.841-12.141,7.164-18.573c0.069-0.195,0.284-0.3,0.479-0.226c0.195,0.07,0.296,0.285,0.226,0.479
			c-4.537,12.567-7.129,19.053-7.704,19.274C601.61,392.245,601.56,392.254,601.508,392.254z"/>
	</g>
	<g>
		<path style="fill:#423A64;" d="M484.8,119.106c0,0-10.899,2.295-8.52,17.129c2.022,12.611-6.85,6.325-11.321,25.5
			c-5.496,23.572,12.006,22.499,5.027,30.874c-10.895,13.074-23.334,47.541,12.858,51.487c33.546,3.657,39.782-18.582,34.848-32.847
			c-4.933-14.265-17.7-19.654-11.96-28.209c5.057-7.537,9.113-21.413-0.268-31.139c-9.381-9.726-8.842-5.385-10.044-18.005
			C494.217,121.277,490.972,117.473,484.8,119.106z"/>
		<path style="fill:#FFF8F0;" d="M488.367,244.807c-0.205,0-0.372-0.165-0.375-0.37l-1.61-110.535
			c-0.003-0.207,0.162-0.377,0.369-0.38c0.245,0.019,0.378,0.163,0.381,0.37l1.61,110.535c0.003,0.207-0.162,0.377-0.369,0.38
			C488.371,244.807,488.369,244.807,488.367,244.807z"/>
		<path style="fill:#FFF8F0;" d="M487.223,170.062c-0.005,0-0.01,0-0.015,0c-0.229-0.011-0.835-0.039-10.034-14.521
			c-0.111-0.175-0.06-0.407,0.115-0.518c0.174-0.111,0.406-0.06,0.518,0.115c3.105,4.889,8.141,12.613,9.366,14.012
			c2.714-3.808,7.505-15.696,7.555-15.819c0.077-0.192,0.297-0.283,0.487-0.208c0.192,0.078,0.285,0.296,0.208,0.488
			c-0.209,0.52-5.147,12.773-7.876,16.295C487.475,169.998,487.341,170.062,487.223,170.062z"/>
		<path style="fill:#FFF8F0;" d="M487.579,195.191c-0.068,0-0.138-0.015-0.192-0.043c-0.521-0.276-5.847-9.577-10.223-17.332
			c-0.103-0.18-0.038-0.409,0.142-0.511c0.181-0.102,0.41-0.039,0.511,0.143c3.402,6.028,8.503,14.93,9.743,16.762
			c1.048-1.986,4.84-12.14,7.163-18.574c0.069-0.195,0.282-0.297,0.479-0.225c0.195,0.07,0.296,0.285,0.226,0.48
			c-4.537,12.568-7.129,19.053-7.703,19.275C487.681,195.183,487.63,195.191,487.579,195.191z"/>
		<path style="fill:#FFF8F0;" d="M488.053,223.372c-0.068,0-0.138-0.015-0.192-0.043c-0.521-0.276-5.847-9.577-10.223-17.332
			c-0.103-0.18-0.038-0.409,0.142-0.511c0.18-0.102,0.409-0.039,0.511,0.143c3.402,6.028,8.503,14.93,9.743,16.763
			c1.048-1.986,4.84-12.141,7.163-18.574c0.069-0.195,0.283-0.296,0.479-0.225c0.195,0.07,0.296,0.285,0.226,0.48
			c-4.537,12.568-7.129,19.053-7.703,19.275C488.154,223.363,488.104,223.372,488.053,223.372z"/>
	</g>
	<g>
		<path style="fill:#4D61F4;" d="M289.769,144.635c0,0-10.899,2.295-8.52,17.129c2.022,12.611-6.85,6.325-11.321,25.5
			c-5.496,23.572,12.006,22.499,5.027,30.874c-10.895,13.074-23.334,47.541,12.858,51.487c33.546,3.657,39.781-18.582,34.848-32.847
			s-17.7-19.654-11.96-28.209c5.057-7.537,9.113-21.413-0.268-31.139c-9.381-9.726-8.842-5.385-10.044-18.005
			C299.186,146.805,295.941,143.001,289.769,144.635z"/>
		<path style="fill:#FFF8F0;" d="M293.336,270.335c-0.205,0-0.372-0.164-0.375-0.369l-1.611-110.536
			c-0.003-0.207,0.163-0.377,0.37-0.38c0.232,0.006,0.377,0.163,0.38,0.37l1.611,110.535c0.003,0.207-0.163,0.378-0.37,0.381
			C293.34,270.335,293.338,270.335,293.336,270.335z"/>
		<path style="fill:#FFF8F0;" d="M292.191,195.59c-0.005,0-0.01,0-0.015,0c-0.228-0.011-0.834-0.039-10.034-14.521
			c-0.111-0.175-0.06-0.407,0.115-0.518c0.174-0.11,0.407-0.06,0.518,0.115c3.105,4.888,8.14,12.612,9.366,14.012
			c2.714-3.809,7.504-15.696,7.554-15.819c0.078-0.193,0.296-0.284,0.488-0.208c0.192,0.078,0.286,0.296,0.208,0.488
			c-0.209,0.52-5.147,12.773-7.877,16.295C292.443,195.526,292.31,195.59,292.191,195.59z"/>
		<path style="fill:#FFF8F0;" d="M292.548,220.719c-0.068,0-0.137-0.015-0.192-0.043c-0.521-0.276-5.846-9.577-10.223-17.331
			c-0.102-0.18-0.038-0.409,0.143-0.511c0.179-0.102,0.408-0.039,0.511,0.143c3.402,6.028,8.502,14.93,9.742,16.762
			c1.049-1.986,4.84-12.141,7.163-18.574c0.071-0.195,0.287-0.294,0.48-0.225c0.195,0.07,0.295,0.285,0.225,0.48
			c-4.537,12.567-7.129,19.052-7.703,19.274C292.65,220.71,292.599,220.719,292.548,220.719z"/>
		<path style="fill:#FFF8F0;" d="M293.021,248.899c-0.068,0-0.137-0.015-0.192-0.043c-0.521-0.276-5.846-9.577-10.223-17.331
			c-0.102-0.18-0.038-0.409,0.143-0.511c0.178-0.102,0.409-0.039,0.511,0.143c3.402,6.028,8.502,14.93,9.742,16.762
			c1.049-1.986,4.841-12.141,7.164-18.574c0.07-0.195,0.286-0.295,0.48-0.225c0.195,0.07,0.295,0.285,0.225,0.48
			c-4.537,12.567-7.129,19.052-7.704,19.274C293.124,248.891,293.073,248.899,293.021,248.899z"/>
	</g>
	<g>
		<path style="fill:#00969E;" d="M559.414,272.549c0,0-10.899,2.295-8.52,17.129c2.022,12.611-6.85,6.325-11.322,25.5
			c-5.496,23.572,12.006,22.499,5.027,30.874c-10.895,13.074-23.334,47.541,12.858,51.487c33.546,3.657,39.781-18.582,34.848-32.847
			c-4.933-14.265-17.701-19.654-11.96-28.209c5.057-7.537,9.113-21.413-0.268-31.139c-9.381-9.726-8.842-5.385-10.044-18.005
			S565.585,270.915,559.414,272.549z"/>
		<path style="fill:#FFF8F0;" d="M562.98,398.249c-0.205,0-0.372-0.164-0.375-0.369l-1.61-110.534
			c-0.003-0.207,0.162-0.378,0.369-0.381c0.002,0,0.004,0,0.006,0c0.205,0,0.372,0.164,0.375,0.369l1.61,110.534
			c0.003,0.207-0.162,0.378-0.369,0.381C562.984,398.249,562.982,398.249,562.98,398.249z"/>
		<path style="fill:#FFF8F0;" d="M561.836,323.505c-0.005,0-0.01,0-0.015-0.001c-0.229-0.011-0.834-0.039-10.034-14.521
			c-0.111-0.175-0.06-0.406,0.115-0.518c0.173-0.112,0.406-0.061,0.518,0.115c3.105,4.889,8.14,12.612,9.366,14.013
			c2.714-3.809,7.505-15.696,7.555-15.819c0.077-0.193,0.297-0.286,0.487-0.208c0.192,0.077,0.285,0.295,0.208,0.487
			c-0.209,0.521-5.147,12.772-7.876,16.295C562.088,323.441,561.954,323.505,561.836,323.505z"/>
		<path style="fill:#FFF8F0;" d="M562.192,348.634c-0.068,0-0.138-0.015-0.192-0.044c-0.521-0.275-5.847-9.577-10.223-17.331
			c-0.103-0.181-0.038-0.409,0.142-0.511c0.18-0.104,0.409-0.039,0.511,0.142c3.402,6.028,8.503,14.931,9.743,16.764
			c1.048-1.986,4.84-12.141,7.163-18.573c0.069-0.195,0.283-0.301,0.479-0.226c0.195,0.07,0.296,0.285,0.226,0.479
			c-4.537,12.568-7.129,19.053-7.703,19.274C562.294,348.626,562.243,348.634,562.192,348.634z"/>
		<path style="fill:#FFF8F0;" d="M562.666,376.814c-0.068,0-0.138-0.015-0.192-0.044c-0.521-0.275-5.847-9.576-10.223-17.33
			c-0.103-0.181-0.038-0.409,0.142-0.511c0.181-0.103,0.41-0.039,0.511,0.142c3.402,6.028,8.503,14.93,9.743,16.763
			c1.048-1.986,4.84-12.141,7.163-18.573c0.069-0.195,0.282-0.299,0.479-0.226c0.195,0.07,0.296,0.285,0.226,0.479
			c-4.537,12.568-7.129,19.053-7.703,19.274C562.768,376.807,562.717,376.814,562.666,376.814z"/>
	</g>
	<path style="fill:#3BC0CB;" d="M267.499,314.667c0,0-25.299-11.161-53.364,10.75c-25.178,19.657-9.857,53.121-37.78,38.018
		c-23.155-12.524-53.715-2.108-53.583,23.492s-29.426,3.782-41.999,29.75h186.725V314.667z"/>
	<path style="fill:#7DD0E6;" d="M490.067,314.667c0,0,25.299-11.161,53.364,10.75c25.178,19.657,9.857,53.121,37.78,38.018
		c23.155-12.524,53.715-2.108,53.583,23.492c-0.132,25.6,29.426,3.782,41.999,29.75H490.067V314.667z"/>
	<g>
		<g>
			<path style="fill:#FFFFFF;" d="M507.199,407.077H242.801c-8.383,0-15.243-6.859-15.243-15.243v-182.27
				c0-8.383,6.859-15.243,15.243-15.243h264.398c8.383,0,15.243,6.859,15.243,15.243v182.27
				C522.442,400.218,515.583,407.077,507.199,407.077z"/>
			<rect x="240.758" y="212.016" style="fill:#038DA6;" width="268.485" height="157.827"/>
			<polygon style="opacity:0.5;fill:#423A64;" points="509.242,369.813 240.758,369.813 509.242,211.986 			"/>
			<path style="fill:#F1F1F2;" d="M535,417.169H215c-10.215,0-18.496-8.281-18.496-18.496v-11.162h356.992v11.162
				C553.496,408.888,545.215,417.169,535,417.169z"/>
			<path style="fill:#FFFFFF;" d="M327.247,379.142c0,12.709,10.303,23.012,23.012,23.012h49.482
				c12.709,0,23.012-10.303,23.012-23.012H327.247z"/>
			<rect x="195.345" y="379.03" style="fill:#ACDFF8;" width="359.311" height="8.481"/>
			<path style="fill:none;stroke:#26788A;stroke-width:4;stroke-linejoin:round;stroke-miterlimit:10;" d="M375,187.016"/>
			<path style="fill:none;stroke:#26788A;stroke-width:4;stroke-linejoin:round;stroke-miterlimit:10;" d="M375,187.016"/>
		</g>
		
			<text transform="matrix(1 0 0 1 286.6519 307.1768)" style="fill:#FFFFFF; font-family:'Gilroy-ExtraBold'; font-size:98.7148px;">404</text>
		
			<text transform="matrix(1 0 0 1 298.3062 330.2178)" style="fill:#FFFFFF; font-family:'Gilroy-ExtraBold'; font-size:21.3221px;">page not found</text>
	</g>
	<g>
		<path style="fill:#F3A988;" d="M511.407,263.473c0,0-1.163,20.446,1.07,21.986c2.233,1.54,8.162-0.634,9.06,7.337
			c0.898,7.971,2.736,47.578,2.736,47.578l-35.494-1.147c0,0,0.308-48.916,0.934-51.242c0.625-2.326,13.342-1.953,13.3-3.55
			c-0.042-1.598-0.099-16.698-0.099-16.698L511.407,263.473z"/>
		<path style="fill:#E76E52;" d="M502.83,278.057c0,0,0.523,1.213,3.794,0.132c2.533-0.837,4.402-3.834,4.402-3.834l0.219-7.261
			l-1.844,1.573c0,0-3.142,6.877-6.623,7.447L502.83,278.057z"/>
		<g>
			<path style="fill:#F3A988;" d="M511.895,266.033c0,0,3.416-2.285,3.503-0.176s-3.987,4.181-4.723,2.899
				C509.938,267.473,511.895,266.033,511.895,266.033z"/>
			<path style="fill:#423F63;" d="M511.27,268.049c-0.019,0-0.037-0.004-0.055-0.013c-0.062-0.03-0.088-0.104-0.058-0.167
				c1.066-2.199,2.783-1.677,2.799-1.67c0.065,0.021,0.102,0.092,0.081,0.157c-0.021,0.065-0.092,0.103-0.157,0.081
				c-0.062-0.02-1.529-0.456-2.498,1.541C511.36,268.022,511.315,268.049,511.27,268.049z"/>
			<path style="fill:#423F63;" d="M512.083,267.725c-0.052,0-0.1-0.032-0.118-0.084c-0.022-0.065,0.012-0.137,0.077-0.159
				c0.506-0.176,0.823-0.41,0.919-0.677c0.084-0.232-0.026-0.419-0.031-0.427c-0.035-0.059-0.018-0.135,0.041-0.171
				c0.059-0.035,0.135-0.019,0.171,0.039c0.008,0.012,0.179,0.289,0.057,0.638c-0.121,0.347-0.483,0.628-1.074,0.834
				C512.11,267.723,512.097,267.725,512.083,267.725z"/>
		</g>
		<path style="fill:#F3A988;" d="M484.558,427.372c0,0,3.906-57.549,4.823-83.378h30.709c0,0-1.447,52.395-1.814,84.112
			c0,0,9.584,1.565,5.084,2.272c-4.5,0.707-9.494,0.13-9.494,0.13s-8.227-67.84-9.71-75.016l-14.485,74.965
			c-3.464-0.321-14.237,0.986-11.912-0.335S484.558,427.372,484.558,427.372z"/>
		<path style="fill:#4D61F4;" d="M487.873,347.637c0,0-1.528,10.984-3.314,30.458l16.357,1.805l2.617-20.063l2.993,19.794
			l15.812-0.66c0,0,0.706-27.691-0.77-31.334C521.566,347.637,493.507,344.462,487.873,347.637z"/>
		<path style="fill:#FFFAF0;" d="M486.529,358.799c-0.06,0-0.112-0.043-0.123-0.104c-0.012-0.068,0.034-0.133,0.102-0.145
			c0.061-0.011,6.041-1.159,8.097-10.928c0.014-0.068,0.08-0.109,0.147-0.097c0.068,0.014,0.111,0.08,0.097,0.147
			c-1.092,5.189-3.282,7.935-4.928,9.324c-1.792,1.514-3.307,1.788-3.37,1.799C486.543,358.798,486.536,358.799,486.529,358.799z"/>
		<path style="fill:#F3A988;" d="M536.806,299.279c0,0,4.753,10.941,8.551,12.253c10.896,3.764,8.801-12.267,15.42-17.449
			s-0.201,7.389-0.824,9.875c-2.625,10.484-8.898,25.948-25.928,12.432c-9.016-7.156-5.977-6.896-5.977-6.896L536.806,299.279z"/>
		<path style="fill:#F3A988;" d="M501.406,255.241c0,0-10.744,18.256-0.398,20.09c6.411,1.137,12.931-11.142,12.359-15.054
			C512.796,256.366,502.266,251.527,501.406,255.241z"/>
		<path style="fill:#FFFAEF;" d="M512.477,285.458c0,0,0.465,7.384-3.66,7.384c-4.171,0-6.817-7.76-6.817-7.76
			s-12.203,0.771-12.361,2.904c-0.158,2.133-1.766,59.651-1.766,59.651l37.722,0.061c0,0-0.289-54.438-2.508-57.343
			C520.868,287.45,526.427,287.112,512.477,285.458z"/>
		<circle style="fill:#423A64;" cx="504.409" cy="263.754" r="0.615"/>
		<circle style="fill:#E76E52;" cx="505.418" cy="267.338" r="1.139"/>
		<path style="fill:#423A64;" d="M504.98,262.084c-0.183,0.54,0.572,0.194,1.277,0.434c0.705,0.24,1.094,0.973,1.277,0.434
			c0.183-0.54-0.24-1.171-0.945-1.411S505.163,261.545,504.98,262.084z"/>
		<path style="fill:#423A64;" d="M499.184,260.114c-0.183,0.54,0.572,0.194,1.277,0.434c0.705,0.24,1.094,0.973,1.277,0.434
			c0.183-0.54-0.24-1.171-0.945-1.411C500.087,259.332,499.367,259.575,499.184,260.114z"/>
		<circle style="fill:#E76E52;" cx="498.498" cy="265.568" r="1.139"/>
		<path style="fill:#423F63;" d="M500.277,266.288c-0.027,0-0.045-0.007-0.059-0.014c-0.032-0.014-0.069-0.056-0.081-0.089
			c-0.08-0.231,0.643-1.636,1.263-2.772c0.033-0.063,0.11-0.083,0.169-0.05c0.061,0.032,0.083,0.108,0.05,0.169
			c-0.522,0.958-1.058,2.024-1.203,2.437c0.277-0.186,0.86-0.697,1.35-1.167c0.051-0.048,0.13-0.045,0.177,0.003
			c0.048,0.05,0.047,0.129-0.003,0.177C500.741,266.133,500.403,266.288,500.277,266.288z"/>
		<circle style="fill:#423A64;" cx="499.637" cy="262.297" r="0.615"/>
		<path style="fill:#423A64;" d="M496.109,269.406c0,0,0.285-3.734,0.904-3.621s-0.474,3.266,0.763,2.258
			c1.237-1.008,3.466-3.081,4.554,0c0.267,0.756,0.622,3.141,4.226,1.689s3.442-4.579,3.751-5.978s-0.574-2.484,1.416-4.718
			c1.678-1.883-11.207,1.614-10.54-4.25c0.235-2.065,5.094-7.167,10.54-4.25c6.606,3.538,7.19,8.565,5.797,8.017
			c-0.872-0.344-1.291-1.237-2.367-1.184c-1.076,0.054,1.344,6.086-1.752,8.022c-4.183,2.616-4.92,11.186-12.351,10.917
			C496.212,276.132,496.139,270.089,496.109,269.406z"/>
		<path style="fill:#FFFAF0;" d="M499.942,269.786c-0.055,0-0.108-0.008-0.161-0.025c-0.435-0.14-0.624-0.828-0.577-2.104
			c0.003-0.067,0.058-0.12,0.125-0.12c0.001,0,0.003,0,0.005,0c0.068,0.003,0.122,0.061,0.12,0.13
			c-0.055,1.485,0.229,1.801,0.404,1.857c0.425,0.127,1.239-0.797,1.651-1.417c0.039-0.058,0.115-0.072,0.174-0.035
			c0.058,0.039,0.073,0.116,0.035,0.174C501.606,268.413,500.671,269.786,499.942,269.786z"/>
		<path style="fill:#423A64;" d="M519.708,286.899c0,0,12.329,2.136,16.923,17.712l-4.653,9.432c0,0-6.851-5.534-10.203-10.367
			C518.423,298.843,519.708,286.899,519.708,286.899z"/>
		<path style="fill:#423A64;" d="M499.022,285.072c0,0-0.852,62.925-1.663,64.3c-0.811,1.375-11.014,0.825-11.014,0.825
			s2.031-58.969,3.367-62.213C491.048,284.74,499.022,285.072,499.022,285.072z"/>
		<path style="fill:#423A64;" d="M516.604,285.99c0,0,0.492,62.367-0.706,64.315s4.25,1.209,6.064,0c0,0,2.823-61.429,2.31-61.691
			C523.759,288.353,520.521,284.983,516.604,285.99z"/>
		<g>
			<path style="fill:#605575;" d="M582.181,259.133l-13.337,21.747l-17.921-10.991l13.337-21.747
				c-7.356-0.225-14.624,3.384-18.748,10.108c-4.122,6.721-4.035,14.828-0.504,21.282l-19.834,32.34l-29.382,47.907
				c-7.354-0.222-14.619,3.375-18.741,10.096c-4.124,6.723-4.046,14.838-0.51,21.293l13.338-21.747l17.921,10.991l-13.338,21.747
				c7.357,0.225,14.625-3.384,18.748-10.108c4.122-6.721,4.036-14.828,0.504-21.282l23.668-38.59l25.548-41.656
				c7.354,0.222,14.619-3.375,18.741-10.097C585.794,273.703,585.717,265.588,582.181,259.133z"/>
			<g>
				<path style="fill:#423A64;" d="M525.174,311.872l-29.382,47.907c-7.354-0.222-14.619,3.375-18.741,10.096
					c-4.124,6.723-4.046,14.838-0.51,21.293l13.338-21.747l17.921,10.991l-13.338,21.747c7.357,0.225,14.625-3.384,18.748-10.108
					c4.122-6.721,4.036-14.828,0.504-21.282l23.668-38.59C529.695,328.05,526.491,318.439,525.174,311.872z"/>
			</g>
			<path style="fill:#FFF8F0;" d="M494.727,372.77c-0.068,0-0.138-0.019-0.2-0.058c-0.175-0.11-0.228-0.343-0.117-0.518
				l62.331-98.743c0.11-0.177,0.342-0.228,0.518-0.117c0.175,0.11,0.228,0.343,0.117,0.518l-62.331,98.743
				C494.973,372.708,494.851,372.77,494.727,372.77z"/>
			<path style="fill:#FFF8F0;" d="M500.237,376.149c-0.067,0-0.135-0.018-0.196-0.056c-0.177-0.108-0.231-0.339-0.123-0.516
				l61.159-99.462c0.107-0.178,0.339-0.233,0.516-0.123c0.177,0.108,0.231,0.339,0.123,0.516l-61.159,99.462
				C500.486,376.086,500.363,376.149,500.237,376.149z"/>
		</g>
		<path style="fill:#F3A988;" d="M490.076,305.013c0,0-9.065,6.863-7.046,13.496c2.58,8.48,19.247,7.499,28.229,10.66
			c8.253,2.904,8.979,8.453,8.756,9.12c-0.222,0.667-5.743-3.631-9.927-5.466c-2.86-1.255-30.762,0.514-37.262-9.8
			c-5.468-8.677,7.282-24.396,11.732-30.181C484.558,292.842,487.757,301.621,490.076,305.013z"/>
		<path style="fill:#423A64;" d="M496.109,303.423l-11.105,8.939c0,0-9.069-6.722-11.083-9.525
			c-1.859-2.587,14.405-17.755,18.762-17.035C495.83,286.322,496.109,303.423,496.109,303.423z"/>
		<path style="fill:#423A64;" d="M484.739,424.681h6.048c0,0-1.146,5.145-1.116,5.776c0.03,0.63-11.936,0.395-12.845,0
			c-2-0.87,7.732-3.085,7.732-3.085L484.739,424.681z"/>
		<path style="fill:#423A64;" d="M518.433,424.681h-5.277c0,0,0.376,5.145,0.345,5.776c-0.031,0.63,11.935,0.395,12.844,0
			c2-0.87-7.732-3.085-7.732-3.085L518.433,424.681z"/>
		<path style="fill:#423F63;" d="M520.016,338.415c-0.044,0-0.088-0.023-0.11-0.065c-1.495-2.777-6.748-6.368-6.801-6.404
			c-0.057-0.039-0.072-0.117-0.033-0.174c0.039-0.056,0.117-0.072,0.174-0.033c0.218,0.148,5.356,3.662,6.881,6.492
			c0.032,0.062,0.01,0.137-0.051,0.17C520.056,338.41,520.036,338.415,520.016,338.415z"/>
		<path style="fill:#423F63;" d="M512.521,332.789c-0.028,0-0.056-0.009-0.079-0.028c-0.054-0.044-0.062-0.122-0.018-0.176
			c0.476-0.581,1.417-1.775,1.571-2.137c0.027-0.063,0.102-0.091,0.165-0.065c0.063,0.027,0.093,0.102,0.065,0.165
			c-0.208,0.482-1.552,2.126-1.608,2.195C512.594,332.773,512.558,332.789,512.521,332.789z"/>
		<path style="fill:#423F63;" d="M519.766,336.654c-0.045,0-0.089-0.024-0.111-0.067c-1.713-3.297-5.885-5.429-5.927-5.45
			c-0.062-0.031-0.086-0.105-0.055-0.168c0.03-0.06,0.104-0.087,0.168-0.055c0.042,0.021,4.284,2.188,6.036,5.558
			c0.031,0.062,0.008,0.137-0.054,0.169C519.805,336.649,519.785,336.654,519.766,336.654z"/>
		<path style="fill:#423F63;" d="M559.493,301.112c-0.025,0-0.051-0.008-0.072-0.023c-0.057-0.04-0.069-0.118-0.029-0.174
			c0.04-0.058,4.075-5.753,4.067-7.675c0-0.069,0.056-0.126,0.124-0.126c0.001,0,0.001,0,0.001,0c0.068,0,0.125,0.056,0.125,0.124
			c0.008,2.003-3.945,7.585-4.114,7.821C559.57,301.094,559.532,301.112,559.493,301.112z"/>
		<path style="fill:#423F63;" d="M560.493,301.629c-0.039,0-0.077-0.019-0.102-0.053c-0.159-0.224-1.615-0.71-2.599-0.984
			c-0.066-0.019-0.105-0.087-0.087-0.153c0.018-0.066,0.088-0.109,0.153-0.087c0.41,0.114,2.468,0.702,2.735,1.08
			c0.04,0.057,0.027,0.134-0.029,0.174C560.544,301.621,560.519,301.629,560.493,301.629z"/>
		<path style="fill:#423F63;" d="M558.576,300.597c-0.02,0-0.04-0.005-0.059-0.015c-0.061-0.032-0.084-0.107-0.052-0.169
			c0.025-0.049,2.599-4.94,3.834-7.233c0.033-0.062,0.108-0.082,0.17-0.051c0.061,0.033,0.083,0.109,0.051,0.17
			c-1.235,2.291-3.808,7.182-3.834,7.231C558.664,300.572,558.621,300.597,558.576,300.597z"/>
		<path style="fill:#524F79;" d="M501.614,256.835c-0.009,0-0.019-0.001-0.027-0.003c-0.067-0.016-0.109-0.082-0.095-0.149
			c0.009-0.039,0.906-3.858,4.102-5.513c2.131-1.103,4.773-1.014,7.857,0.263c0.063,0.026,0.094,0.1,0.067,0.163
			c-0.025,0.063-0.099,0.096-0.163,0.067c-3.012-1.245-5.586-1.338-7.647-0.271c-3.093,1.602-3.964,5.309-3.972,5.346
			C501.723,256.796,501.672,256.835,501.614,256.835z"/>
		<path style="fill:#524F79;" d="M503.794,258.146c-0.019,0-0.037-0.004-0.055-0.013c-0.063-0.03-0.088-0.105-0.058-0.167
			c0.01-0.021,1.01-2.028,2.989-3.534c1.833-1.396,4.902-2.637,9.11-0.635c0.063,0.03,0.089,0.104,0.06,0.167
			c-0.029,0.063-0.104,0.088-0.167,0.06c-3.285-1.563-6.262-1.361-8.845,0.602c-1.936,1.47-2.913,3.431-2.923,3.45
			C503.885,258.121,503.84,258.146,503.794,258.146z"/>
		<path style="fill:#524F79;" d="M506.525,258.146c-0.025,0-0.051-0.008-0.073-0.023c-0.056-0.041-0.068-0.119-0.028-0.175
			c3.784-5.21,8.126-2.637,8.168-2.609c0.059,0.036,0.077,0.112,0.041,0.172c-0.036,0.058-0.113,0.076-0.172,0.041
			c-0.169-0.103-4.194-2.474-7.834,2.543C506.603,258.129,506.563,258.146,506.525,258.146z"/>
		<path style="fill:#423F63;" d="M501.406,255.366c-0.065,0-0.121-0.052-0.125-0.118c-0.103-1.782,0.334-3.188,1.298-4.181
			c1.541-1.586,3.847-1.537,3.95-1.536c0.068,0.002,0.123,0.06,0.121,0.128c-0.002,0.068-0.058,0.122-0.125,0.122
			c-0.002,0,0.021,0-0.033,0c-0.271,0-2.363,0.048-3.735,1.462c-0.912,0.939-1.324,2.282-1.226,3.991
			c0.004,0.068-0.049,0.128-0.118,0.132C501.411,255.366,501.408,255.366,501.406,255.366z"/>
		<path style="fill:#524F79;" d="M512.772,262.005c-0.093,0-0.186-0.007-0.277-0.021c-0.994-0.158-1.563-1.11-1.587-1.15
			c-0.035-0.06-0.016-0.136,0.044-0.171c0.059-0.036,0.135-0.016,0.171,0.044c0.006,0.009,0.536,0.893,1.413,1.03
			c0.545,0.089,1.124-0.133,1.712-0.654c0.051-0.045,0.13-0.04,0.177,0.011c0.046,0.052,0.041,0.131-0.011,0.177
			C513.862,261.759,513.312,262.005,512.772,262.005z"/>
		<path style="fill:#524F79;" d="M512.861,264.078c-0.353,0-0.683-0.078-0.987-0.234c-1.08-0.553-1.453-1.875-1.468-1.931
			c-0.019-0.066,0.021-0.136,0.087-0.153c0.065-0.02,0.136,0.021,0.153,0.087c0.004,0.013,0.36,1.274,1.343,1.775
			c0.525,0.269,1.143,0.274,1.834,0.015c0.064-0.021,0.137,0.009,0.161,0.073s-0.009,0.137-0.073,0.161
			C513.543,264.009,513.192,264.078,512.861,264.078z"/>
	</g>
	<g>
		<path style="fill:#4D61F4;" d="M233.458,278.996c0,0,1.309,5.106,4.947,6.271c3.639,1.164,4.915-1.892,7.098,0
			c2.183,1.892,5.859,4.461,10.997,1.468c5.138-2.993,2.352-3.506,5.156-1.759c2.804,1.747,7.371-1.688,7.056-4.668
			c-0.322-3.041-3.906-6.103-4.776-13.247c-0.744-6.107-3.537-12.652-9.949-11.779c-6.412,0.873-12.182,3.159-14.028,11.186
			C238.114,274.495,231.855,272.94,233.458,278.996z"/>
		<path style="fill:#F2A887;" d="M249.977,292.57l9.174-1.592c0,0-1.214-10.528-0.223-15.328c0.689-3.337-8.951-8.364-8.951-8.364
			V292.57z"/>
		<path style="fill:#F2A887;" d="M259.096,260.082c0,0,7.669,14.288,0.508,18.967c-4.541,2.967-13.506-10.438-13.143-14.375
			C246.823,260.738,258.04,256.419,259.096,260.082z"/>
		<path style="fill:#F2A887;" d="M249.713,270.805c0,0-2.902-2.91-3.4-0.859c-0.498,2.051,3.09,4.881,4.064,3.768
			C251.35,272.601,249.713,270.805,249.713,270.805z"/>
		<path style="fill:#4D61F4;" d="M259.026,258.902c0,0-5.458-1.334-6.786,5.896c-1.431,7.789-8.281,4.8-8.281,4.8
			S240.541,255.787,259.026,258.902z"/>
		<circle style="fill:#423A64;" cx="253.594" cy="270.295" r="0.615"/>
		<path style="fill:#E66E52;" d="M258.582,279.487c0,0-4.736,0.447-7.801-4.039c-0.692-1.013,0.057,4.225,2.593,6.694
			c2.667,2.598,5.431,3.827,5.431,3.827S258.3,281.149,258.582,279.487z"/>
		<path style="fill:#423F63;" d="M249.751,272.966c-0.062,0-0.115-0.045-0.124-0.107c-0.157-1.118-0.518-1.856-1.042-2.137
			c-0.509-0.271-1.009-0.034-1.015-0.032c-0.06,0.031-0.136,0.004-0.167-0.058c-0.03-0.063-0.004-0.137,0.058-0.167
			c0.024-0.012,0.624-0.295,1.241,0.037c0.606,0.323,1,1.104,1.171,2.321c0.009,0.068-0.038,0.132-0.106,0.142
			C249.763,272.966,249.757,272.966,249.751,272.966z"/>
		<circle style="fill:#E66E52;" cx="254.305" cy="273.018" r="1.139"/>
		<path style="fill:#423F63;" d="M249.199,272.383c-0.042,0-0.084-0.021-0.107-0.061c-0.793-1.326-0.615-1.722-0.571-1.787
			c0.038-0.058,0.115-0.072,0.173-0.035c0.055,0.037,0.071,0.109,0.04,0.166c-0.008,0.021-0.118,0.373,0.573,1.527
			c0.035,0.06,0.016,0.137-0.043,0.172C249.243,272.377,249.221,272.383,249.199,272.383z"/>
		<path style="fill:#4D61F4;" d="M254.007,268.05c0.187,0.538-0.57,0.198-1.274,0.443s-1.087,0.981-1.274,0.443
			s0.232-1.173,0.936-1.417C253.098,267.274,253.82,267.512,254.007,268.05z"/>
		<path style="fill:#4D61F4;" d="M260.043,265.953c0.187,0.538-0.57,0.198-1.274,0.443c-0.704,0.245-1.087,0.981-1.274,0.443
			c-0.187-0.538,0.232-1.173,0.935-1.417C259.134,265.177,259.856,265.415,260.043,265.953z"/>
		<circle style="fill:#E66E52;" cx="261.213" cy="271.2" r="1.139"/>
		<path style="fill:#423F63;" d="M259.369,271.966c-0.126,0-0.465-0.154-1.669-1.296c-0.05-0.048-0.052-0.127-0.005-0.177
			c0.048-0.052,0.127-0.052,0.177-0.005c0.493,0.467,1.079,0.975,1.358,1.158c-0.148-0.41-0.691-1.474-1.22-2.428
			c-0.033-0.061-0.012-0.137,0.049-0.17s0.137-0.012,0.17,0.049c0.628,1.133,1.36,2.531,1.281,2.765
			c-0.011,0.033-0.048,0.076-0.081,0.09C259.415,271.958,259.397,271.966,259.369,271.966z"/>
		<path style="fill:#423F63;" d="M258.834,274.768c-0.719,0-1.4-1.403-1.478-1.569c-0.029-0.063-0.002-0.137,0.06-0.166
			c0.063-0.027,0.137-0.003,0.167,0.061c0.274,0.583,0.857,1.486,1.293,1.422c0.189-0.027,0.539-0.292,0.759-1.754
			c0.01-0.067,0.068-0.12,0.142-0.105c0.068,0.011,0.115,0.074,0.105,0.143c-0.188,1.254-0.506,1.896-0.97,1.965
			C258.886,274.766,258.86,274.768,258.834,274.768z"/>
		<circle style="fill:#423A64;" cx="259.507" cy="268.52" r="0.615"/>
		<path style="fill:#E05626;" d="M247.568,270.149c-0.394,0-0.816-0.025-1.27-0.08c-0.069-0.008-0.118-0.07-0.109-0.139
			c0.008-0.068,0.068-0.126,0.139-0.109c4.896,0.584,5.911-2.164,6.983-5.077c0.325-0.884,0.662-1.798,1.113-2.611
			c1.92-3.462,4.122-3.423,4.225-3.418c0.069,0.003,0.123,0.061,0.12,0.129c-0.002,0.067-0.058,0.121-0.125,0.121
			c-0.001-0.001-0.001-0.001-0.008,0c-0.11,0-2.195,0.049-3.993,3.289c-0.442,0.797-0.775,1.701-1.097,2.576
			C252.582,267.449,251.588,270.149,247.568,270.149z"/>
		<path style="fill:#423A64;" d="M243.406,386.776c0,0,27.339,5.342,30.399,1.488c3.06-3.854-3.683-46.821-14.678-43.795
			C248.131,347.495,243.406,386.776,243.406,386.776z"/>
		<path style="fill:#F3A988;" d="M247.575,291.15c0,0-6.111-0.322-11.254,6.453c-5.143,6.775-7.133,22.676-13.45,22.02
			c-3.349-0.348-3.126-27.119-3.849-34.348c-0.875-8.75-7.333-12.161-5.25-6.979c4.474,11.129-1.625,34.104,0.625,45.229
			c2.321,11.477,17.219,9.767,24.346-5.42C245.871,302.918,247.575,291.15,247.575,291.15z"/>
		<path style="fill:#F3A988;" d="M248.307,426.045c0,0-3.289-60.614-2.501-88.344h26.412c0,0,1.23,61.949-1.288,89.502
			c0,0,10.364,2.071,6.494,2.83c-3.87,0.76-11.471-0.47-11.471-0.47s-6.164-71.814-7.44-79.518l-5.984,79.518
			c0.169-0.287-3.118,0.335-13.082,0.81C237.047,430.487,248.307,426.045,248.307,426.045z"/>
		<path style="fill:#ACDBCF;" d="M241.344,340.191c0,0,4.38,77.122,4.38,78.858h8.939l3.931-66.056l4.374,66.056l9.796-0.823
			c0,0,2.195-72.849,1.132-79.806C273.896,338.421,247.06,339.994,241.344,340.191z"/>
		<path style="fill:#F3A988;" d="M273.896,338.371c0,0-4.78-27-4.668-43c0.111-16-27.884-4.139-27.884-4.139s2.646,38.481,0,48.789
			C241.344,340.02,259.992,342.217,273.896,338.371z"/>
		<path style="fill:#423A64;" d="M265.823,428.279l10.004,0.992l-0.027-0.938c0,0,4.229,1.365,4.658,2.195s-14.602-0.23-14.602-0.23
			L265.823,428.279z"/>
		<path style="fill:#423A64;" d="M252.551,428.279l-10.004,0.992l0.027-0.938c0,0-4.229,1.365-4.658,2.195
			c-0.429,0.83,14.602-0.23,14.602-0.23L252.551,428.279z"/>
		<path style="fill:#FFFAEF;" d="M242.55,303.896c0,0,17.268-6.758,25.259-2.52c4.522,2.398,6.087,38.149,6.087,38.149
			s-23.35,3.044-32.552,0.495C241.344,340.02,241.809,310.509,242.55,303.896z"/>
		<path style="fill:#423A64;" d="M247.049,373.905c0,0,0.449-82.506-0.895-84.057c-1.344-1.55-9.688,1.118-13.042,8.753
			c-4.145,9.436-6.93,17.213-6.93,17.213l12.882,5.339c0,0-3.655,70.572-1.768,69.471S246.45,392.65,247.049,373.905z"/>
		<path style="fill:#423A64;" d="M262.968,287.4c0,0,4.621,74.994,5.182,80.279c1.425,13.42,6.028,24.429,8.24,21.546
			c2.212-2.883-3.489-83.686-4.301-84.069c-0.813-0.383,0.446,3.666,0.446,3.666s3.94,2.497,8.68,6.683
			c0,0,6.306-8.712,3.924-11.357C280.728,299.249,268.794,284.969,262.968,287.4z"/>
		<path style="fill:#E05626;" d="M236.56,280.389c-0.75,0-1.213-0.342-1.238-0.36c-0.055-0.041-0.066-0.119-0.025-0.175
			c0.042-0.055,0.121-0.067,0.175-0.024c0.006,0.005,0.677,0.49,1.686,0.231c0.991-0.258,2.501-1.298,4.072-4.792
			c0.805-1.792,1.251-3.873,1.724-6.077c1.295-6.042,2.635-12.291,11.717-12.291c0.069,0,0.125,0.056,0.125,0.125
			s-0.056,0.125-0.125,0.125c-8.88,0-10.198,6.148-11.473,12.094c-0.455,2.119-0.924,4.312-1.74,6.126
			c-1.296,2.884-2.725,4.544-4.246,4.934C236.977,280.364,236.758,280.389,236.56,280.389z"/>
		<path style="fill:#E05626;" d="M242.522,282.275c-0.057,0-0.108-0.039-0.122-0.097c-0.016-0.067,0.026-0.135,0.093-0.15
			c0.014-0.003,1.363-0.327,2.557-1.59c1.581-1.673,2.176-4.232,1.723-7.403c-0.01-0.068,0.038-0.132,0.106-0.142
			c0.068-0.013,0.131,0.038,0.141,0.106c0.588,4.113-0.653,6.414-1.798,7.62c-1.246,1.313-2.615,1.639-2.672,1.652
			C242.541,282.274,242.531,282.275,242.522,282.275z"/>
		<path style="fill:#E05626;" d="M247.048,267.917c-0.061,0-0.114-0.044-0.124-0.105c-0.835-5.323,6.975-9.424,7.054-9.465
			c0.06-0.029,0.136-0.008,0.168,0.054c0.032,0.062,0.008,0.137-0.053,0.169c-0.078,0.04-7.729,4.058-6.921,9.203
			c0.011,0.068-0.036,0.133-0.104,0.143C247.061,267.917,247.055,267.917,247.048,267.917z"/>
		<path style="fill:#E05626;" d="M262.968,282.275c-0.026,0-0.052-0.008-0.074-0.024c-0.056-0.041-0.067-0.119-0.026-0.175
			c3.46-4.703,0.806-7.431,0.691-7.544c-0.049-0.049-0.049-0.128-0.001-0.177s0.127-0.051,0.177-0.001
			c0.03,0.029,2.927,2.986-0.666,7.87C263.044,282.258,263.006,282.275,262.968,282.275z"/>
		<path style="fill:#F3A988;" d="M268.727,290.973c0,0,17.899,9.924,23.821,24.532c6.465,15.947-16.389,19.646-17.583,31.774
			c-0.762,7.743-4.294-3.856-1.069-8.909c4.191-6.566,15.052-12.884,10.25-19.721c-7.834-11.153-16.338-17.274-16.338-17.274
			S265.193,295.475,268.727,290.973z"/>
		<path style="fill:#423A64;" d="M281.216,315.505c0,0,8.164-8.152,6.958-10.117c-3.276-5.335-13.85-17.738-23.421-18.253
			c0,0-2.828,13.859,7.783,21.687C272.536,308.823,279.785,314.86,281.216,315.505z"/>
		<path style="fill:#FFFAF0;" d="M255.022,353.025c-0.068,0-0.124-0.055-0.125-0.123c-0.001-0.069,0.054-0.126,0.123-0.127
			l7.946-0.125c0,0,0.001,0,0.001,0c0.069,0,0.125,0.055,0.125,0.123c0.001,0.069-0.054,0.126-0.123,0.127l-7.946,0.125
			C255.023,353.025,255.022,353.025,255.022,353.025z"/>
		<path style="fill:#FFFAF0;" d="M258.594,353.118c-0.065,0-0.12-0.051-0.125-0.116l-0.826-11.955
			c-0.005-0.069,0.047-0.129,0.116-0.134c0.071,0.006,0.129,0.048,0.133,0.116l0.826,11.955c0.005,0.069-0.047,0.129-0.116,0.134
			C258.6,353.118,258.597,353.118,258.594,353.118z"/>
		<path style="fill:#FFFAF0;" d="M247.12,342.249c-0.068,0-0.124-0.055-0.125-0.123s0.054-0.126,0.123-0.127
			c0.176-0.003,17.64-0.332,19.414-1.076c0.064-0.026,0.137,0.003,0.164,0.067c0.027,0.063-0.003,0.137-0.067,0.163
			c-1.818,0.763-18.785,1.082-19.506,1.096C247.122,342.249,247.121,342.249,247.12,342.249z"/>
		<path style="fill:#FFFAF0;" d="M258.519,350.17c-0.004,0-0.007,0-0.009,0c-0.069-0.003-0.123-0.061-0.121-0.13
			c0.003-0.068,0.054-0.125,0.128-0.12c0.04,0,2.518-0.112,2.88-9.279c0.003-0.069,0.064-0.112,0.13-0.12
			c0.069,0.003,0.123,0.061,0.12,0.13C261.278,349.98,258.721,350.17,258.519,350.17z"/>
		<path style="fill:#423F63;" d="M273.896,349.761c-0.068,0-0.124-0.055-0.125-0.123c-0.004-0.249-0.076-6.112,1.614-8.137
			c0.044-0.052,0.124-0.059,0.176-0.016c0.053,0.044,0.06,0.123,0.016,0.176c-1.631,1.953-1.557,7.913-1.556,7.973
			c0.001,0.069-0.054,0.126-0.123,0.127C273.898,349.761,273.897,349.761,273.896,349.761z"/>
		<path style="fill:#423F63;" d="M272.894,347.543c-0.065,0-0.12-0.05-0.125-0.115c-0.17-2.236,1.584-6.643,1.659-6.829
			c0.025-0.064,0.1-0.094,0.163-0.069c0.064,0.025,0.095,0.099,0.07,0.163c-0.018,0.045-1.807,4.538-1.642,6.716
			c0.005,0.069-0.046,0.129-0.115,0.135C272.9,347.543,272.897,347.543,272.894,347.543z"/>
		<path style="fill:#423F63;" d="M276.23,341.706c-0.007,0-0.014-0.001-0.021-0.002c-1.462-0.244-2.386-2.046-2.425-2.122
			c-0.031-0.062-0.006-0.137,0.056-0.168c0.063-0.032,0.136-0.006,0.168,0.055c0.009,0.018,0.906,1.766,2.242,1.989
			c0.068,0.011,0.114,0.075,0.103,0.144C276.343,341.663,276.29,341.706,276.23,341.706z"/>
		<path style="fill:#423F63;" d="M215.897,284.032c-0.063,0-0.117-0.048-0.124-0.111c-0.491-4.488-2.49-7.05-2.51-7.075
			c-0.043-0.055-0.034-0.133,0.02-0.176c0.054-0.043,0.133-0.033,0.175,0.02c0.021,0.026,2.065,2.645,2.563,7.204
			c0.008,0.068-0.042,0.131-0.11,0.138C215.906,284.032,215.901,284.032,215.897,284.032z"/>
		<path style="fill:#423F63;" d="M217.022,283.463c-0.057,0-0.108-0.039-0.122-0.097c-0.01-0.044-1.049-4.471-2.384-7.23
			c-0.03-0.063-0.004-0.137,0.058-0.167c0.06-0.03,0.137-0.004,0.167,0.058c1.348,2.785,2.393,7.238,2.403,7.283
			c0.016,0.067-0.026,0.135-0.093,0.15C217.041,283.462,217.031,283.463,217.022,283.463z"/>
		<path style="fill:#423F63;" d="M215.171,284.46c-0.042,0-0.082-0.021-0.105-0.059c-0.037-0.058-0.02-0.135,0.039-0.172
			c0.059-0.037,1.458-0.918,2.532-1.016c0.064-0.02,0.13,0.044,0.136,0.112c0.006,0.069-0.044,0.13-0.113,0.136
			c-1.012,0.093-2.406,0.97-2.42,0.979C215.217,284.454,215.194,284.46,215.171,284.46z"/>
	</g>
	<g>
		<polygon style="fill:#FFFFFF;" points="332.365,367.727 331.172,367.727 327.293,367.727 326.1,367.727 310.885,421.188 
			327.293,421.188 331.172,421.188 347.581,421.188 		"/>
		<g>
			<defs>
				<polygon id="SVGID_1_" points="332.365,367.727 331.172,367.727 327.293,367.727 326.1,367.727 310.885,421.188 
					327.293,421.188 331.172,421.188 347.581,421.188 				"/>
			</defs>
			<clipPath id="SVGID_00000139295592206585200170000006303333533143925916_">
				<use xlink:href="#SVGID_1_"  style="overflow:visible;"/>
			</clipPath>
			
				<rect x="309.342" y="371.305" style="clip-path:url(#SVGID_00000139295592206585200170000006303333533143925916_);fill:#4D61F4;" width="41.333" height="9.214"/>
			
				<rect x="309.342" y="389.082" style="clip-path:url(#SVGID_00000139295592206585200170000006303333533143925916_);fill:#4D61F4;" width="41.333" height="9.214"/>
			
				<rect x="309.342" y="406.511" style="clip-path:url(#SVGID_00000139295592206585200170000006303333533143925916_);fill:#4D61F4;" width="41.333" height="9.214"/>
			
				<rect x="308.081" y="418.108" style="clip-path:url(#SVGID_00000139295592206585200170000006303333533143925916_);fill:#E6E6E6;" width="41.468" height="3.08"/>
		</g>
		<rect x="305.833" y="421.188" style="fill:#4D61F4;" width="46.707" height="8.991"/>
	</g>
	<g>
		<polygon style="fill:#FFFFFF;" points="408.832,422.895 409.194,424.032 410.373,427.727 410.735,428.864 466.292,427.115 
			461.306,411.482 460.127,407.787 455.141,392.154 		"/>
		<g>
			<defs>
				<polygon id="SVGID_00000145059313018914021440000014233423542360237971_" points="408.832,422.895 409.194,424.032 
					410.373,427.727 410.735,428.864 466.292,427.115 461.306,411.482 460.127,407.787 455.141,392.154 				"/>
			</defs>
			<clipPath id="SVGID_00000015323752836780317540000011572170973655536280_">
				<use xlink:href="#SVGID_00000145059313018914021440000014233423542360237971_"  style="overflow:visible;"/>
			</clipPath>
			
				<rect x="396.679" y="418.046" transform="matrix(-0.3039 -0.9527 0.9527 -0.3039 141.4981 948.6963)" style="clip-path:url(#SVGID_00000015323752836780317540000011572170973655536280_);fill:#4D61F4;" width="41.333" height="9.214"/>
			
				<rect x="413.615" y="412.645" transform="matrix(-0.3039 -0.9527 0.9527 -0.3039 168.7276 957.7884)" style="clip-path:url(#SVGID_00000015323752836780317540000011572170973655536280_);fill:#4D61F4;" width="41.333" height="9.214"/>
			
				<rect x="430.22" y="407.348" transform="matrix(-0.3039 -0.9527 0.9527 -0.3039 195.4239 966.7025)" style="clip-path:url(#SVGID_00000015323752836780317540000011572170973655536280_);fill:#4D61F4;" width="41.333" height="9.214"/>
			
				<rect x="438.642" y="408.96" transform="matrix(-0.3039 -0.9527 0.9527 -0.3039 207.8793 972.8936)" style="clip-path:url(#SVGID_00000015323752836780317540000011572170973655536280_);fill:#E6E6E6;" width="41.468" height="3.08"/>
		</g>
		
			<rect x="441.66" y="403.817" transform="matrix(-0.3039 -0.9527 0.9527 -0.3039 217.3134 975.4122)" style="fill:#4D61F4;" width="46.707" height="8.991"/>
	</g>
	<g>
		<g>
			<g>
				<rect x="138.274" y="367.683" style="fill:#423A64;" width="5.877" height="62.01"/>
			</g>
			<g>
				<rect x="208.035" y="367.683" style="fill:#423A64;" width="5.877" height="62.01"/>
			</g>
		</g>
		<g>
			<rect x="133.394" y="375.94" style="fill:#038DA6;" width="85.398" height="27.107"/>
			<g>
				<defs>
					
						<rect id="SVGID_00000076582081216763522380000015519567855962570644_" x="133.394" y="375.94" width="85.398" height="27.107"/>
				</defs>
				<use xlink:href="#SVGID_00000076582081216763522380000015519567855962570644_"  style="overflow:visible;fill:#FFFFFF;"/>
				<clipPath id="SVGID_00000080897264440097031250000016577508770613299111_">
					<use xlink:href="#SVGID_00000076582081216763522380000015519567855962570644_"  style="overflow:visible;"/>
				</clipPath>
				
					<rect x="115.687" y="378.154" transform="matrix(0.4376 -0.8991 0.8991 0.4376 -262.5417 345.179)" style="clip-path:url(#SVGID_00000080897264440097031250000016577508770613299111_);fill:#4D61F4;" width="57.988" height="8.646"/>
				
					<rect x="133.865" y="378.053" transform="matrix(0.4376 -0.8991 0.8991 0.4376 -252.2285 361.4664)" style="clip-path:url(#SVGID_00000080897264440097031250000016577508770613299111_);fill:#4D61F4;" width="57.988" height="8.646"/>
				
					<rect x="152.288" y="377.951" transform="matrix(0.4376 -0.8991 0.8991 0.4376 -241.7756 377.9743)" style="clip-path:url(#SVGID_00000080897264440097031250000016577508770613299111_);fill:#4D61F4;" width="57.988" height="8.646"/>
				
					<rect x="170.466" y="377.849" transform="matrix(0.4376 -0.8991 0.8991 0.4376 -231.4624 394.2617)" style="clip-path:url(#SVGID_00000080897264440097031250000016577508770613299111_);fill:#4D61F4;" width="57.988" height="8.646"/>
				
					<rect x="187.385" y="377.849" transform="matrix(0.4376 -0.8991 0.8991 0.4376 -221.9476 409.4749)" style="clip-path:url(#SVGID_00000080897264440097031250000016577508770613299111_);fill:#4D61F4;" width="57.988" height="8.646"/>
			</g>
		</g>
	</g>
	<g>
		<g>
			<g>
				<rect x="536.088" y="367.683" style="fill:#423A64;" width="5.877" height="62.01"/>
			</g>
			<g>
				<rect x="605.849" y="367.683" style="fill:#423A64;" width="5.877" height="62.01"/>
			</g>
		</g>
		<g>
			<rect x="531.208" y="375.94" style="fill:#038DA6;" width="85.398" height="27.107"/>
			<g>
				<defs>
					
						<rect id="SVGID_00000004529865213732071380000011012423009306096827_" x="531.208" y="375.94" width="85.398" height="27.107"/>
				</defs>
				<use xlink:href="#SVGID_00000004529865213732071380000011012423009306096827_"  style="overflow:visible;fill:#FFFFFF;"/>
				<clipPath id="SVGID_00000176041004753575980320000011582396223819059850_">
					<use xlink:href="#SVGID_00000004529865213732071380000011012423009306096827_"  style="overflow:visible;"/>
				</clipPath>
				
					<rect x="513.501" y="378.154" transform="matrix(0.4376 -0.8991 0.8991 0.4376 -38.8278 702.873)" style="clip-path:url(#SVGID_00000176041004753575980320000011582396223819059850_);fill:#4D61F4;" width="57.988" height="8.646"/>
				
					<rect x="531.678" y="378.053" transform="matrix(0.4376 -0.8991 0.8991 0.4376 -28.5146 719.1604)" style="clip-path:url(#SVGID_00000176041004753575980320000011582396223819059850_);fill:#4D61F4;" width="57.988" height="8.646"/>
				
					<rect x="550.102" y="377.951" transform="matrix(0.4376 -0.8991 0.8991 0.4376 -18.0617 735.6683)" style="clip-path:url(#SVGID_00000176041004753575980320000011582396223819059850_);fill:#4D61F4;" width="57.988" height="8.646"/>
				
					<rect x="568.279" y="377.849" transform="matrix(0.4376 -0.8991 0.8991 0.4376 -7.7485 751.9557)" style="clip-path:url(#SVGID_00000176041004753575980320000011582396223819059850_);fill:#4D61F4;" width="57.988" height="8.646"/>
				
					<rect x="585.199" y="377.849" transform="matrix(0.4376 -0.8991 0.8991 0.4376 1.7663 767.1689)" style="clip-path:url(#SVGID_00000176041004753575980320000011582396223819059850_);fill:#4D61F4;" width="57.988" height="8.646"/>
			</g>
		</g>
	</g>
	<g>
		<path style="fill:#4D61F4;" d="M498.601,221.224c0-13.711-11.115-24.827-24.827-24.827c-13.711,0-24.827,11.115-24.827,24.827
			c0,13.711,11.115,24.827,24.827,24.827c3.561,0,6.943-0.755,10.004-2.105c3.087,1.961,9.722,6.113,9.772,5.615
			c0.041-0.399-2.625-5.085-4.682-8.631C494.784,236.392,498.601,229.255,498.601,221.224z"/>
	</g>
	<path style="fill:#FFFFFF;" d="M488.939,217.437h-3.017c-0.275-1.677-0.889-3.24-1.767-4.619l1.888-1.888
		c0.941-0.941,0.941-2.466,0-3.407c-0.94-0.941-2.467-0.941-3.407,0l-1.809,1.809c-1.385-0.976-2.977-1.677-4.698-2.018v-2.486
		c0-1.331-1.079-2.409-2.409-2.409s-2.409,1.079-2.409,2.409v2.486c-1.672,0.332-3.223,1.001-4.581,1.934l-1.725-1.725
		c-0.941-0.941-2.466-0.941-3.407,0c-0.941,0.941-0.941,2.466,0,3.407l1.766,1.766c-0.921,1.409-1.563,3.015-1.846,4.741h-2.615
		c-1.331,0-2.409,1.079-2.409,2.409s1.079,2.409,2.409,2.409h2.775c0.366,1.567,1.029,3.02,1.929,4.296l-2.21,2.21
		c-0.941,0.941-0.941,2.466,0,3.407c0.471,0.471,1.087,0.706,1.704,0.706c0.617,0,1.233-0.235,1.704-0.706l2.289-2.289
		c1.269,0.808,2.692,1.393,4.217,1.696v3.289c0,1.331,1.079,2.409,2.409,2.409s2.409-1.079,2.409-2.409v-3.289
		c1.574-0.312,3.041-0.925,4.34-1.774l2.368,2.368c0.47,0.471,1.087,0.706,1.703,0.706s1.233-0.235,1.703-0.706
		c0.941-0.941,0.941-2.466,0-3.407l-2.327-2.327c0.858-1.248,1.491-2.66,1.846-4.179h3.177c1.331,0,2.409-1.079,2.409-2.409
		S490.27,217.437,488.939,217.437z M473.921,226.512c-3.681,0-6.666-2.984-6.666-6.666c0-3.681,2.984-6.666,6.666-6.666
		c3.681,0,6.666,2.984,6.666,6.666C480.587,223.528,477.603,226.512,473.921,226.512z"/>
</g>

</svg>
